<svg width="369" height="64" viewBox="0 0 369 64" fill="none" xmlns="http://www.w3.org/2000/svg">
<path d="M0.332031 63V3.28125H21.25C28.4961 3.28125 33.9922 4.67578 37.7383 7.46484C41.4844 10.2266 43.3574 14.2871 43.3574 19.6465C43.3574 22.5723 42.6055 25.1562 41.1016 27.3984C39.5977 29.6133 37.5059 31.2402 34.8262 32.2793C37.8887 33.0449 40.2949 34.5898 42.0449 36.9141C43.8223 39.2383 44.7109 42.082 44.7109 45.4453C44.7109 51.1875 42.8789 55.5352 39.2148 58.4883C35.5508 61.4414 30.3281 62.9453 23.5469 63H0.332031ZM12.6367 36.9961V53.1152H23.1777C26.0762 53.1152 28.332 52.4316 29.9453 51.0645C31.5859 49.6699 32.4062 47.7559 32.4062 45.3223C32.4062 39.8535 29.5762 37.0781 23.916 36.9961H12.6367ZM12.6367 28.3008H21.7422C27.9492 28.1914 31.0527 25.7168 31.0527 20.877C31.0527 18.1699 30.2598 16.2285 28.6738 15.0527C27.1152 13.8496 24.6406 13.248 21.25 13.248H12.6367V28.3008ZM65.7109 63H53.8164V0H65.7109V63ZM73.668 40.4004C73.668 35.998 74.5156 32.0742 76.2109 28.6289C77.9062 25.1836 80.3398 22.5176 83.5117 20.6309C86.7109 18.7441 90.416 17.8008 94.627 17.8008C100.615 17.8008 105.496 19.6328 109.27 23.2969C113.07 26.9609 115.189 31.9375 115.627 38.2266L115.709 41.2617C115.709 48.0703 113.809 53.5391 110.008 57.668C106.207 61.7695 101.107 63.8203 94.709 63.8203C88.3105 63.8203 83.1973 61.7695 79.3691 57.668C75.5684 53.5664 73.668 47.9883 73.668 40.9336V40.4004ZM85.5215 41.2617C85.5215 45.4727 86.3145 48.6992 87.9004 50.9414C89.4863 53.1562 91.7559 54.2637 94.709 54.2637C97.5801 54.2637 99.8223 53.1699 101.436 50.9824C103.049 48.7676 103.855 45.2402 103.855 40.4004C103.855 36.2715 103.049 33.0723 101.436 30.8027C99.8223 28.5332 97.5527 27.3984 94.627 27.3984C91.7285 27.3984 89.4863 28.5332 87.9004 30.8027C86.3145 33.0449 85.5215 36.5312 85.5215 41.2617ZM147.045 50.7363C147.045 49.2871 146.32 48.1523 144.871 47.332C143.449 46.4844 141.152 45.7324 137.98 45.0762C127.426 42.8613 122.148 38.377 122.148 31.623C122.148 27.6855 123.775 24.4043 127.029 21.7793C130.311 19.127 134.59 17.8008 139.867 17.8008C145.5 17.8008 149.998 19.127 153.361 21.7793C156.752 24.4316 158.447 27.877 158.447 32.1152H146.594C146.594 30.4199 146.047 29.0254 144.953 27.9316C143.859 26.8105 142.15 26.25 139.826 26.25C137.83 26.25 136.285 26.7012 135.191 27.6035C134.098 28.5059 133.551 29.6543 133.551 31.0488C133.551 32.3613 134.166 33.4277 135.396 34.248C136.654 35.041 138.76 35.7383 141.713 36.3398C144.666 36.9141 147.154 37.5703 149.178 38.3086C155.439 40.6055 158.57 44.584 158.57 50.2441C158.57 54.291 156.834 57.5723 153.361 60.0879C149.889 62.5762 145.404 63.8203 139.908 63.8203C136.189 63.8203 132.881 63.1641 129.982 61.8516C127.111 60.5117 124.855 58.6934 123.215 56.3965C121.574 54.0723 120.754 51.5703 120.754 48.8906H131.992C132.102 50.9961 132.881 52.6094 134.33 53.7305C135.779 54.8516 137.721 55.4121 140.154 55.4121C142.424 55.4121 144.133 54.9883 145.281 54.1406C146.457 53.2656 147.045 52.1309 147.045 50.7363ZM190.275 50.7363C190.275 49.2871 189.551 48.1523 188.102 47.332C186.68 46.4844 184.383 45.7324 181.211 45.0762C170.656 42.8613 165.379 38.377 165.379 31.623C165.379 27.6855 167.006 24.4043 170.26 21.7793C173.541 19.127 177.82 17.8008 183.098 17.8008C188.73 17.8008 193.229 19.127 196.592 21.7793C199.982 24.4316 201.678 27.877 201.678 32.1152H189.824C189.824 30.4199 189.277 29.0254 188.184 27.9316C187.09 26.8105 185.381 26.25 183.057 26.25C181.061 26.25 179.516 26.7012 178.422 27.6035C177.328 28.5059 176.781 29.6543 176.781 31.0488C176.781 32.3613 177.396 33.4277 178.627 34.248C179.885 35.041 181.99 35.7383 184.943 36.3398C187.896 36.9141 190.385 37.5703 192.408 38.3086C198.67 40.6055 201.801 44.584 201.801 50.2441C201.801 54.291 200.064 57.5723 196.592 60.0879C193.119 62.5762 188.635 63.8203 183.139 63.8203C179.42 63.8203 176.111 63.1641 173.213 61.8516C170.342 60.5117 168.086 58.6934 166.445 56.3965C164.805 54.0723 163.984 51.5703 163.984 48.8906H175.223C175.332 50.9961 176.111 52.6094 177.561 53.7305C179.01 54.8516 180.951 55.4121 183.385 55.4121C185.654 55.4121 187.363 54.9883 188.512 54.1406C189.688 53.2656 190.275 52.1309 190.275 50.7363ZM207.625 40.4004C207.625 35.998 208.473 32.0742 210.168 28.6289C211.863 25.1836 214.297 22.5176 217.469 20.6309C220.668 18.7441 224.373 17.8008 228.584 17.8008C234.572 17.8008 239.453 19.6328 243.227 23.2969C247.027 26.9609 249.146 31.9375 249.584 38.2266L249.666 41.2617C249.666 48.0703 247.766 53.5391 243.965 57.668C240.164 61.7695 235.064 63.8203 228.666 63.8203C222.268 63.8203 217.154 61.7695 213.326 57.668C209.525 53.5664 207.625 47.9883 207.625 40.9336V40.4004ZM219.479 41.2617C219.479 45.4727 220.271 48.6992 221.857 50.9414C223.443 53.1562 225.713 54.2637 228.666 54.2637C231.537 54.2637 233.779 53.1699 235.393 50.9824C237.006 48.7676 237.812 45.2402 237.812 40.4004C237.812 36.2715 237.006 33.0723 235.393 30.8027C233.779 28.5332 231.51 27.3984 228.584 27.3984C225.686 27.3984 223.443 28.5332 221.857 30.8027C220.271 33.0449 219.479 36.5312 219.479 41.2617ZM268.082 18.6211L268.451 23.584C271.596 19.7285 275.848 17.8008 281.207 17.8008C286.922 17.8008 290.846 20.0566 292.979 24.5684C296.096 20.0566 300.539 17.8008 306.309 17.8008C311.121 17.8008 314.703 19.209 317.055 22.0254C319.406 24.8145 320.582 29.0254 320.582 34.6582V63H308.688V34.6992C308.688 32.1836 308.195 30.3516 307.211 29.2031C306.227 28.0273 304.49 27.4395 302.002 27.4395C298.447 27.4395 295.986 29.1348 294.619 32.5254L294.66 63H282.807V34.7402C282.807 32.1699 282.301 30.3105 281.289 29.1621C280.277 28.0137 278.555 27.4395 276.121 27.4395C272.758 27.4395 270.324 28.834 268.82 31.623V63H256.967V18.6211H268.082ZM350.154 63.8203C343.646 63.8203 338.342 61.8242 334.24 57.832C330.166 53.8398 328.129 48.5215 328.129 41.877V40.7285C328.129 36.2715 328.99 32.293 330.713 28.793C332.436 25.2656 334.869 22.5586 338.014 20.6719C341.186 18.7578 344.795 17.8008 348.842 17.8008C354.912 17.8008 359.684 19.7148 363.156 23.543C366.656 27.3711 368.406 32.7988 368.406 39.8262V44.666H340.146C340.529 47.5645 341.678 49.8887 343.592 51.6387C345.533 53.3887 347.98 54.2637 350.934 54.2637C355.5 54.2637 359.068 52.6094 361.639 49.3008L367.463 55.8223C365.686 58.3379 363.279 60.3066 360.244 61.7285C357.209 63.123 353.846 63.8203 350.154 63.8203ZM348.801 27.3984C346.449 27.3984 344.535 28.1914 343.059 29.7773C341.609 31.3633 340.68 33.6328 340.27 36.5859H356.758V35.6426C356.703 33.0176 355.992 30.9941 354.625 29.5723C353.258 28.123 351.316 27.3984 348.801 27.3984Z" fill="white"/>
</svg>
