<svg width="442" height="116" viewBox="0 0 442 116" fill="none" xmlns="http://www.w3.org/2000/svg">
<path d="M6.09375 89V20.75H30C38.2812 20.75 44.5625 22.3438 48.8438 25.5312C53.125 28.6875 55.2656 33.3281 55.2656 39.4531C55.2656 42.7969 54.4062 45.75 52.6875 48.3125C50.9688 50.8438 48.5781 52.7031 45.5156 53.8906C49.0156 54.7656 51.7656 56.5312 53.7656 59.1875C55.7969 61.8438 56.8125 65.0938 56.8125 68.9375C56.8125 75.5 54.7188 80.4688 50.5312 83.8438C46.3438 87.2188 40.375 88.9375 32.625 89H6.09375ZM20.1562 59.2812V77.7031H32.2031C35.5156 77.7031 38.0938 76.9219 39.9375 75.3594C41.8125 73.7656 42.75 71.5781 42.75 68.7969C42.75 62.5469 39.5156 59.375 33.0469 59.2812H20.1562ZM20.1562 49.3438H30.5625C37.6562 49.2188 41.2031 46.3906 41.2031 40.8594C41.2031 37.7656 40.2969 35.5469 38.4844 34.2031C36.7031 32.8281 33.875 32.1406 30 32.1406H20.1562V49.3438ZM80.8125 89H67.2188V17H80.8125V89ZM89.9062 63.1719C89.9062 58.1406 90.875 53.6562 92.8125 49.7188C94.75 45.7812 97.5312 42.7344 101.156 40.5781C104.812 38.4219 109.047 37.3438 113.859 37.3438C120.703 37.3438 126.281 39.4375 130.594 43.625C134.938 47.8125 137.359 53.5 137.859 60.6875L137.953 64.1562C137.953 71.9375 135.781 78.1875 131.438 82.9062C127.094 87.5938 121.266 89.9375 113.953 89.9375C106.641 89.9375 100.797 87.5938 96.4219 82.9062C92.0781 78.2188 89.9062 71.8438 89.9062 63.7812V63.1719ZM103.453 64.1562C103.453 68.9688 104.359 72.6562 106.172 75.2188C107.984 77.75 110.578 79.0156 113.953 79.0156C117.234 79.0156 119.797 77.7656 121.641 75.2656C123.484 72.7344 124.406 68.7031 124.406 63.1719C124.406 58.4531 123.484 54.7969 121.641 52.2031C119.797 49.6094 117.203 48.3125 113.859 48.3125C110.547 48.3125 107.984 49.6094 106.172 52.2031C104.359 54.7656 103.453 58.75 103.453 64.1562ZM173.766 74.9844C173.766 73.3281 172.938 72.0312 171.281 71.0938C169.656 70.125 167.031 69.2656 163.406 68.5156C151.344 65.9844 145.312 60.8594 145.312 53.1406C145.312 48.6406 147.172 44.8906 150.891 41.8906C154.641 38.8594 159.531 37.3438 165.562 37.3438C172 37.3438 177.141 38.8594 180.984 41.8906C184.859 44.9219 186.797 48.8594 186.797 53.7031H173.25C173.25 51.7656 172.625 50.1719 171.375 48.9219C170.125 47.6406 168.172 47 165.516 47C163.234 47 161.469 47.5156 160.219 48.5469C158.969 49.5781 158.344 50.8906 158.344 52.4844C158.344 53.9844 159.047 55.2031 160.453 56.1406C161.891 57.0469 164.297 57.8438 167.672 58.5312C171.047 59.1875 173.891 59.9375 176.203 60.7812C183.359 63.4062 186.938 67.9531 186.938 74.4219C186.938 79.0469 184.953 82.7969 180.984 85.6719C177.016 88.5156 171.891 89.9375 165.609 89.9375C161.359 89.9375 157.578 89.1875 154.266 87.6875C150.984 86.1562 148.406 84.0781 146.531 81.4531C144.656 78.7969 143.719 75.9375 143.719 72.875H156.562C156.688 75.2812 157.578 77.125 159.234 78.4062C160.891 79.6875 163.109 80.3281 165.891 80.3281C168.484 80.3281 170.438 79.8438 171.75 78.875C173.094 77.875 173.766 76.5781 173.766 74.9844ZM223.172 74.9844C223.172 73.3281 222.344 72.0312 220.688 71.0938C219.062 70.125 216.438 69.2656 212.812 68.5156C200.75 65.9844 194.719 60.8594 194.719 53.1406C194.719 48.6406 196.578 44.8906 200.297 41.8906C204.047 38.8594 208.938 37.3438 214.969 37.3438C221.406 37.3438 226.547 38.8594 230.391 41.8906C234.266 44.9219 236.203 48.8594 236.203 53.7031H222.656C222.656 51.7656 222.031 50.1719 220.781 48.9219C219.531 47.6406 217.578 47 214.922 47C212.641 47 210.875 47.5156 209.625 48.5469C208.375 49.5781 207.75 50.8906 207.75 52.4844C207.75 53.9844 208.453 55.2031 209.859 56.1406C211.297 57.0469 213.703 57.8438 217.078 58.5312C220.453 59.1875 223.297 59.9375 225.609 60.7812C232.766 63.4062 236.344 67.9531 236.344 74.4219C236.344 79.0469 234.359 82.7969 230.391 85.6719C226.422 88.5156 221.297 89.9375 215.016 89.9375C210.766 89.9375 206.984 89.1875 203.672 87.6875C200.391 86.1562 197.812 84.0781 195.938 81.4531C194.062 78.7969 193.125 75.9375 193.125 72.875H205.969C206.094 75.2812 206.984 77.125 208.641 78.4062C210.297 79.6875 212.516 80.3281 215.297 80.3281C217.891 80.3281 219.844 79.8438 221.156 78.875C222.5 77.875 223.172 76.5781 223.172 74.9844ZM243 63.1719C243 58.1406 243.969 53.6562 245.906 49.7188C247.844 45.7812 250.625 42.7344 254.25 40.5781C257.906 38.4219 262.141 37.3438 266.953 37.3438C273.797 37.3438 279.375 39.4375 283.688 43.625C288.031 47.8125 290.453 53.5 290.953 60.6875L291.047 64.1562C291.047 71.9375 288.875 78.1875 284.531 82.9062C280.188 87.5938 274.359 89.9375 267.047 89.9375C259.734 89.9375 253.891 87.5938 249.516 82.9062C245.172 78.2188 243 71.8438 243 63.7812V63.1719ZM256.547 64.1562C256.547 68.9688 257.453 72.6562 259.266 75.2188C261.078 77.75 263.672 79.0156 267.047 79.0156C270.328 79.0156 272.891 77.7656 274.734 75.2656C276.578 72.7344 277.5 68.7031 277.5 63.1719C277.5 58.4531 276.578 54.7969 274.734 52.2031C272.891 49.6094 270.297 48.3125 266.953 48.3125C263.641 48.3125 261.078 49.6094 259.266 52.2031C257.453 54.7656 256.547 58.75 256.547 64.1562Z" fill="white"/>
<path d="M312.094 38.2812L312.516 43.9531C316.109 39.5469 320.969 37.3438 327.094 37.3438C333.625 37.3438 338.109 39.9219 340.547 45.0781C344.109 39.9219 349.188 37.3438 355.781 37.3438C361.281 37.3438 365.375 38.9531 368.062 42.1719C370.75 45.3594 372.094 50.1719 372.094 56.6094V89H358.5V56.6562C358.5 53.7812 357.938 51.6875 356.812 50.375C355.688 49.0312 353.703 48.3594 350.859 48.3594C346.797 48.3594 343.984 50.2969 342.422 54.1719L342.469 89H328.922V56.7031C328.922 53.7656 328.344 51.6406 327.188 50.3281C326.031 49.0156 324.062 48.3594 321.281 48.3594C317.438 48.3594 314.656 49.9531 312.938 53.1406V89H299.391V38.2812H312.094ZM405.891 89.9375C398.453 89.9375 392.391 87.6562 387.703 83.0938C383.047 78.5312 380.719 72.4531 380.719 64.8594V63.5469C380.719 58.4531 381.703 53.9062 383.672 49.9062C385.641 45.875 388.422 42.7812 392.016 40.625C395.641 38.4375 399.766 37.3438 404.391 37.3438C411.328 37.3438 416.781 39.5312 420.75 43.9062C424.75 48.2812 426.75 54.4844 426.75 62.5156V68.0469H394.453C394.891 71.3594 396.203 74.0156 398.391 76.0156C400.609 78.0156 403.406 79.0156 406.781 79.0156C412 79.0156 416.078 77.125 419.016 73.3438L425.672 80.7969C423.641 83.6719 420.891 85.9219 417.422 87.5469C413.953 89.1406 410.109 89.9375 405.891 89.9375ZM404.344 48.3125C401.656 48.3125 399.469 49.2188 397.781 51.0312C396.125 52.8438 395.062 55.4375 394.594 58.8125H413.438V57.7344C413.375 54.7344 412.562 52.4219 411 50.7969C409.438 49.1406 407.219 48.3125 404.344 48.3125Z" fill="#FFF7EA"/>
<path d="M294.188 98.375H429.234V103.062H294.188V98.375Z" fill="#FFF7EA"/>
</svg>
