<svg width="440" height="84" viewBox="0 0 440 84" fill="none" xmlns="http://www.w3.org/2000/svg">
<path d="M379.755 74.5521C379.087 77.1751 378.052 79.117 376.505 80.43C376.088 80.7834 375.625 81.0986 375.11 81.3721C370.45 79.3464 366.012 74.9481 362.387 69.0842C357.356 60.9483 354.081 50.2714 354.081 40.1756C354.081 33.8066 355.385 27.5338 357.606 21.9358C357.88 22.1011 358.153 22.2676 358.426 22.4354C364.534 26.1991 370.159 30.5773 374.245 35.2539C378.34 39.942 380.804 44.8295 380.804 49.633C380.804 54.6508 380.464 59.2642 380.159 63.4009L380.144 63.6134C379.838 67.7588 379.57 71.4699 379.755 74.5521ZM339.873 13.3698C344.956 15.2485 350.518 17.8264 355.863 20.9081C353.479 26.8117 352.081 33.4411 352.081 40.1756C352.081 50.6641 355.471 61.7025 360.685 70.1359C363.948 75.4128 368.001 79.7827 372.475 82.295C371.496 82.4989 370.388 82.6063 369.133 82.6063C362.211 82.6063 351.454 79.3401 342.423 73.4991C333.376 67.6482 326.362 59.4181 326.362 49.633C326.362 41.5896 324.204 33.5822 322.411 26.9256C321.875 24.9363 321.371 23.0676 320.967 21.3547C320.524 19.4743 320.201 17.7898 320.067 16.3203C319.933 14.8434 319.997 13.6499 320.28 12.7231C320.553 11.8258 321.028 11.1784 321.768 10.7329C322.535 10.2708 323.676 9.97341 325.362 9.97341C328.761 9.97341 333.945 11.1789 339.873 13.3698ZM359.475 20.7327C359.115 20.5108 358.753 20.291 358.39 20.0735C359.533 17.509 360.87 15.1089 362.361 12.9341C367.389 5.60005 374.035 1 380.726 1C387.439 1 394.375 5.52571 399.686 12.7634C401.19 14.8127 402.553 17.0663 403.733 19.4738C403.081 19.8928 402.433 20.3207 401.791 20.757C396.15 24.5912 390.926 29.0975 387.103 33.9793C384.686 37.0654 382.805 40.3326 381.75 43.6978C380.565 40.3087 378.45 37.0275 375.751 33.938C371.49 29.0611 365.688 24.5609 359.475 20.7327ZM402.916 22.4111C403.467 22.0361 404.023 21.6675 404.583 21.3055C407.049 26.9345 408.523 33.2901 408.523 39.7818C408.523 49.8605 404.97 60.6308 399.652 68.8709C395.457 75.3708 390.291 80.1157 385.061 81.8667C384.562 81.5746 384.144 81.2327 383.791 80.8487C382.583 79.5318 381.971 77.5341 381.771 74.7308C381.784 74.6759 381.797 74.6208 381.81 74.5656C382.524 71.4973 382.767 67.806 382.837 63.6421C382.88 61.0913 382.857 58.3205 382.834 55.3792C382.819 53.5273 382.804 51.6078 382.804 49.633C382.804 44.7924 385.013 39.891 388.677 35.2125C392.336 30.5409 397.387 26.1688 402.916 22.4111ZM387.985 82.8293C392.984 80.4084 397.619 75.7097 401.332 69.9554C406.835 61.4295 410.523 50.2875 410.523 39.7818C410.523 32.896 408.939 26.167 406.293 20.2266C410.819 17.4406 415.506 15.1001 419.871 13.3608C425.357 11.1746 430.247 9.97341 433.638 9.97341C435.324 9.97341 436.465 10.2708 437.232 10.7329C437.972 11.1784 438.447 11.8258 438.72 12.7231C439.003 13.6499 439.067 14.8434 438.933 16.3203C438.799 17.7898 438.476 19.4743 438.033 21.3547C437.629 23.0676 437.125 24.9363 436.589 26.9256C434.796 33.5822 432.638 41.5896 432.638 49.633C432.638 59.4307 425.752 67.7592 416.853 73.7041C407.965 79.6416 397.356 83 390.443 83C389.526 83 388.71 82.941 387.985 82.8293ZM382.576 82.4683C381.958 82.5596 381.341 82.6063 380.726 82.6063C379.65 82.6063 378.574 82.4657 377.504 82.1953C377.604 82.1172 377.702 82.0371 377.798 81.9552C378.88 81.0375 379.727 79.9098 380.391 78.6076C380.793 79.9909 381.405 81.2064 382.318 82.201C382.402 82.2924 382.488 82.3815 382.576 82.4683Z" fill="#FFA800" stroke="white" stroke-width="2"/>
<path d="M0.332031 78V18.2812H21.25C28.4961 18.2812 33.9922 19.6758 37.7383 22.4648C41.4844 25.2266 43.3574 29.2871 43.3574 34.6465C43.3574 37.5723 42.6055 40.1562 41.1016 42.3984C39.5977 44.6133 37.5059 46.2402 34.8262 47.2793C37.8887 48.0449 40.2949 49.5898 42.0449 51.9141C43.8223 54.2383 44.7109 57.082 44.7109 60.4453C44.7109 66.1875 42.8789 70.5352 39.2148 73.4883C35.5508 76.4414 30.3281 77.9453 23.5469 78H0.332031ZM12.6367 51.9961V68.1152H23.1777C26.0762 68.1152 28.332 67.4316 29.9453 66.0645C31.5859 64.6699 32.4062 62.7559 32.4062 60.3223C32.4062 54.8535 29.5762 52.0781 23.916 51.9961H12.6367ZM12.6367 43.3008H21.7422C27.9492 43.1914 31.0527 40.7168 31.0527 35.877C31.0527 33.1699 30.2598 31.2285 28.6738 30.0527C27.1152 28.8496 24.6406 28.248 21.25 28.248H12.6367V43.3008ZM65.7109 78H53.8164V15H65.7109V78ZM73.668 55.4004C73.668 50.998 74.5156 47.0742 76.2109 43.6289C77.9062 40.1836 80.3398 37.5176 83.5117 35.6309C86.7109 33.7441 90.416 32.8008 94.627 32.8008C100.615 32.8008 105.496 34.6328 109.27 38.2969C113.07 41.9609 115.189 46.9375 115.627 53.2266L115.709 56.2617C115.709 63.0703 113.809 68.5391 110.008 72.668C106.207 76.7695 101.107 78.8203 94.709 78.8203C88.3105 78.8203 83.1973 76.7695 79.3691 72.668C75.5684 68.5664 73.668 62.9883 73.668 55.9336V55.4004ZM85.5215 56.2617C85.5215 60.4727 86.3145 63.6992 87.9004 65.9414C89.4863 68.1562 91.7559 69.2637 94.709 69.2637C97.5801 69.2637 99.8223 68.1699 101.436 65.9824C103.049 63.7676 103.855 60.2402 103.855 55.4004C103.855 51.2715 103.049 48.0723 101.436 45.8027C99.8223 43.5332 97.5527 42.3984 94.627 42.3984C91.7285 42.3984 89.4863 43.5332 87.9004 45.8027C86.3145 48.0449 85.5215 51.5312 85.5215 56.2617ZM147.045 65.7363C147.045 64.2871 146.32 63.1523 144.871 62.332C143.449 61.4844 141.152 60.7324 137.98 60.0762C127.426 57.8613 122.148 53.377 122.148 46.623C122.148 42.6855 123.775 39.4043 127.029 36.7793C130.311 34.127 134.59 32.8008 139.867 32.8008C145.5 32.8008 149.998 34.127 153.361 36.7793C156.752 39.4316 158.447 42.877 158.447 47.1152H146.594C146.594 45.4199 146.047 44.0254 144.953 42.9316C143.859 41.8105 142.15 41.25 139.826 41.25C137.83 41.25 136.285 41.7012 135.191 42.6035C134.098 43.5059 133.551 44.6543 133.551 46.0488C133.551 47.3613 134.166 48.4277 135.396 49.248C136.654 50.041 138.76 50.7383 141.713 51.3398C144.666 51.9141 147.154 52.5703 149.178 53.3086C155.439 55.6055 158.57 59.584 158.57 65.2441C158.57 69.291 156.834 72.5723 153.361 75.0879C149.889 77.5762 145.404 78.8203 139.908 78.8203C136.189 78.8203 132.881 78.1641 129.982 76.8516C127.111 75.5117 124.855 73.6934 123.215 71.3965C121.574 69.0723 120.754 66.5703 120.754 63.8906H131.992C132.102 65.9961 132.881 67.6094 134.33 68.7305C135.779 69.8516 137.721 70.4121 140.154 70.4121C142.424 70.4121 144.133 69.9883 145.281 69.1406C146.457 68.2656 147.045 67.1309 147.045 65.7363ZM190.275 65.7363C190.275 64.2871 189.551 63.1523 188.102 62.332C186.68 61.4844 184.383 60.7324 181.211 60.0762C170.656 57.8613 165.379 53.377 165.379 46.623C165.379 42.6855 167.006 39.4043 170.26 36.7793C173.541 34.127 177.82 32.8008 183.098 32.8008C188.73 32.8008 193.229 34.127 196.592 36.7793C199.982 39.4316 201.678 42.877 201.678 47.1152H189.824C189.824 45.4199 189.277 44.0254 188.184 42.9316C187.09 41.8105 185.381 41.25 183.057 41.25C181.061 41.25 179.516 41.7012 178.422 42.6035C177.328 43.5059 176.781 44.6543 176.781 46.0488C176.781 47.3613 177.396 48.4277 178.627 49.248C179.885 50.041 181.99 50.7383 184.943 51.3398C187.896 51.9141 190.385 52.5703 192.408 53.3086C198.67 55.6055 201.801 59.584 201.801 65.2441C201.801 69.291 200.064 72.5723 196.592 75.0879C193.119 77.5762 188.635 78.8203 183.139 78.8203C179.42 78.8203 176.111 78.1641 173.213 76.8516C170.342 75.5117 168.086 73.6934 166.445 71.3965C164.805 69.0723 163.984 66.5703 163.984 63.8906H175.223C175.332 65.9961 176.111 67.6094 177.561 68.7305C179.01 69.8516 180.951 70.4121 183.385 70.4121C185.654 70.4121 187.363 69.9883 188.512 69.1406C189.688 68.2656 190.275 67.1309 190.275 65.7363ZM207.625 55.4004C207.625 50.998 208.473 47.0742 210.168 43.6289C211.863 40.1836 214.297 37.5176 217.469 35.6309C220.668 33.7441 224.373 32.8008 228.584 32.8008C234.572 32.8008 239.453 34.6328 243.227 38.2969C247.027 41.9609 249.146 46.9375 249.584 53.2266L249.666 56.2617C249.666 63.0703 247.766 68.5391 243.965 72.668C240.164 76.7695 235.064 78.8203 228.666 78.8203C222.268 78.8203 217.154 76.7695 213.326 72.668C209.525 68.5664 207.625 62.9883 207.625 55.9336V55.4004ZM219.479 56.2617C219.479 60.4727 220.271 63.6992 221.857 65.9414C223.443 68.1562 225.713 69.2637 228.666 69.2637C231.537 69.2637 233.779 68.1699 235.393 65.9824C237.006 63.7676 237.812 60.2402 237.812 55.4004C237.812 51.2715 237.006 48.0723 235.393 45.8027C233.779 43.5332 231.51 42.3984 228.584 42.3984C225.686 42.3984 223.443 43.5332 221.857 45.8027C220.271 48.0449 219.479 51.5312 219.479 56.2617ZM268.082 33.6211L268.451 38.584C271.596 34.7285 275.848 32.8008 281.207 32.8008C286.922 32.8008 290.846 35.0566 292.979 39.5684C296.096 35.0566 300.539 32.8008 306.309 32.8008C311.121 32.8008 314.703 34.209 317.055 37.0254C319.406 39.8145 320.582 44.0254 320.582 49.6582V78H308.688V49.6992C308.688 47.1836 308.195 45.3516 307.211 44.2031C306.227 43.0273 304.49 42.4395 302.002 42.4395C298.447 42.4395 295.986 44.1348 294.619 47.5254L294.66 78H282.807V49.7402C282.807 47.1699 282.301 45.3105 281.289 44.1621C280.277 43.0137 278.555 42.4395 276.121 42.4395C272.758 42.4395 270.324 43.834 268.82 46.623V78H256.967V33.6211H268.082ZM350.154 78.8203C343.646 78.8203 338.342 76.8242 334.24 72.832C330.166 68.8398 328.129 63.5215 328.129 56.877V55.7285C328.129 51.2715 328.99 47.293 330.713 43.793C332.436 40.2656 334.869 37.5586 338.014 35.6719C341.186 33.7578 344.795 32.8008 348.842 32.8008C354.912 32.8008 359.684 34.7148 363.156 38.543C366.656 42.3711 368.406 47.7988 368.406 54.8262V59.666H340.146C340.529 62.5645 341.678 64.8887 343.592 66.6387C345.533 68.3887 347.98 69.2637 350.934 69.2637C355.5 69.2637 359.068 67.6094 361.639 64.3008L367.463 70.8223C365.686 73.3379 363.279 75.3066 360.244 76.7285C357.209 78.123 353.846 78.8203 350.154 78.8203ZM348.801 42.3984C346.449 42.3984 344.535 43.1914 343.059 44.7773C341.609 46.3633 340.68 48.6328 340.27 51.5859H356.758V50.6426C356.703 48.0176 355.992 45.9941 354.625 44.5723C353.258 43.123 351.316 42.3984 348.801 42.3984Z" fill="white"/>
</svg>
