<svg width="1120" height="283" viewBox="0 0 1120 283" fill="none" xmlns="http://www.w3.org/2000/svg">
<g filter="url(#filter0_d)">
<path d="M1020.39 149.92C1026.61 253.28 984.267 270 945.683 270C907.099 270 863.371 254.04 869.596 149.92C873.549 83.8 907.099 4 945.683 4C984.267 4 1016.08 78.48 1020.39 149.92Z" stroke="url(#paint0_linear)" stroke-width="8"/>
</g>
<path d="M965 265.324C965 271.059 947.258 276.281 946.874 283C946.681 276.281 927.011 270.038 928.039 265.324C929.637 257.994 936.471 247 946.874 247C957.276 247 965 259.589 965 265.324Z" fill="#93E080"/>
<g filter="url(#filter1_d)">
<path d="M877.608 72.9082C878.801 73.7161 882.891 76.4787 884.071 77.3074C900.52 88.8574 915.719 102.329 926.79 116.772C937.876 131.233 944.708 146.514 944.708 161.716C944.708 177.105 945.427 192.985 944.609 205.617C944.609 220.895 944.708 234.746 944.708 238.005C942.877 246.314 937.185 252.658 932.707 256.987C931.356 258.294 929.844 259.432 928.152 260.389C924.631 261.709 917.028 264 912.075 264C893.2 264 864.112 253.896 839.732 235.926C815.333 217.942 794.718 192.286 790.658 161.716L781.057 74.7058L779.186 60.0605C778.818 55.454 778.982 51.5846 779.808 48.4849C780.625 45.4307 782.087 43.1206 784.39 41.5399C786.73 39.9337 790.058 39 794.718 39C804.072 39 818.148 42.7588 834.088 49.4731C848.108 55.3785 863.474 63.5299 878.18 73.2868" stroke="url(#paint1_linear)" stroke-width="8"/>
</g>
<g filter="url(#filter2_d)">
<path d="M1013.39 71.2096C1012.2 72.0247 1008.11 74.8119 1006.93 75.648C990.48 87.3006 975.281 100.892 964.21 115.463C953.123 130.053 946.292 145.47 946.292 160.806C946.292 176.333 945.573 192.354 946.391 205.098C946.391 220.512 946.292 234.486 946.292 237.773C948.123 246.157 953.815 252.557 958.293 256.925C959.644 258.243 961.156 259.391 962.848 260.357C966.369 261.689 973.972 264 978.925 264C997.8 264 1026.89 253.806 1051.27 235.677C1075.67 217.532 1096.28 191.649 1100.34 160.806L1109.94 73.0232L1111.81 58.2477C1112.18 53.6003 1112.02 49.6964 1111.19 46.5692C1110.37 43.4879 1108.91 41.1572 1106.61 39.5624C1104.27 37.942 1100.94 37 1096.28 37C1086.93 37 1072.85 40.7922 1056.91 47.5662C1042.89 53.5241 1027.53 61.748 1012.82 71.5915" stroke="url(#paint2_linear)" stroke-width="8"/>
</g>
<path d="M0.453125 270V127.812H49.1836C65.2643 127.812 77.5039 131.035 85.9023 137.48C94.3008 143.926 98.5 153.529 98.5 166.289C98.5 172.799 96.7422 178.659 93.2266 183.867C89.7109 189.076 84.5677 193.112 77.7969 195.977C85.4792 198.06 91.4036 201.999 95.5703 207.793C99.8021 213.522 101.918 220.423 101.918 228.496C101.918 241.842 97.6211 252.096 89.0273 259.258C80.4987 266.419 68.2591 270 52.3086 270H0.453125ZM25.1602 205.84V250.273H52.6016C60.349 250.273 66.4036 248.353 70.7656 244.512C75.1276 240.671 77.3086 235.332 77.3086 228.496C77.3086 213.717 69.7565 206.165 54.6523 205.84H25.1602ZM25.1602 187.676H49.3789C57.0612 187.676 63.0508 185.951 67.3477 182.5C71.7096 178.984 73.8906 174.036 73.8906 167.656C73.8906 160.625 71.8724 155.547 67.8359 152.422C63.8646 149.297 57.6471 147.734 49.1836 147.734H25.1602V187.676ZM149.574 270H125.844V120H149.574V270ZM171.059 216.191C171.059 205.84 173.109 196.53 177.211 188.262C181.312 179.928 187.074 173.548 194.496 169.121C201.918 164.629 210.447 162.383 220.082 162.383C234.34 162.383 245.896 166.973 254.75 176.152C263.669 185.332 268.487 197.507 269.203 212.676L269.301 218.242C269.301 228.659 267.283 237.969 263.246 246.172C259.275 254.375 253.546 260.723 246.059 265.215C238.637 269.707 230.043 271.953 220.277 271.953C205.368 271.953 193.422 267.005 184.438 257.109C175.518 247.148 171.059 233.9 171.059 217.363V216.191ZM194.789 218.242C194.789 229.115 197.035 237.643 201.527 243.828C206.02 249.948 212.27 253.008 220.277 253.008C228.285 253.008 234.503 249.883 238.93 243.633C243.422 237.383 245.668 228.236 245.668 216.191C245.668 205.514 243.357 197.051 238.734 190.801C234.177 184.551 227.96 181.426 220.082 181.426C212.335 181.426 206.182 184.518 201.625 190.703C197.068 196.823 194.789 206.003 194.789 218.242ZM348.598 241.289C348.598 237.057 346.84 233.835 343.324 231.621C339.874 229.408 334.112 227.454 326.039 225.762C317.966 224.069 311.228 221.921 305.824 219.316C293.975 213.587 288.051 205.286 288.051 194.414C288.051 185.299 291.892 177.682 299.574 171.562C307.257 165.443 317.022 162.383 328.871 162.383C341.501 162.383 351.69 165.508 359.438 171.758C367.25 178.008 371.156 186.113 371.156 196.074H347.426C347.426 191.517 345.733 187.741 342.348 184.746C338.962 181.686 334.47 180.156 328.871 180.156C323.663 180.156 319.398 181.361 316.078 183.77C312.823 186.178 311.195 189.401 311.195 193.438C311.195 197.083 312.725 199.915 315.785 201.934C318.845 203.952 325.03 206.003 334.34 208.086C343.65 210.104 350.941 212.546 356.215 215.41C361.553 218.21 365.492 221.595 368.031 225.566C370.635 229.538 371.938 234.355 371.938 240.02C371.938 249.525 367.999 257.24 360.121 263.164C352.243 269.023 341.924 271.953 329.164 271.953C320.505 271.953 312.79 270.391 306.02 267.266C299.249 264.141 293.975 259.844 290.199 254.375C286.423 248.906 284.535 243.014 284.535 236.699H307.582C307.908 242.298 310.023 246.628 313.93 249.688C317.836 252.682 323.012 254.18 329.457 254.18C335.707 254.18 340.46 253.008 343.715 250.664C346.97 248.255 348.598 245.13 348.598 241.289ZM451.918 241.289C451.918 237.057 450.16 233.835 446.645 231.621C443.194 229.408 437.432 227.454 429.359 225.762C421.286 224.069 414.548 221.921 409.145 219.316C397.296 213.587 391.371 205.286 391.371 194.414C391.371 185.299 395.212 177.682 402.895 171.562C410.577 165.443 420.342 162.383 432.191 162.383C444.822 162.383 455.01 165.508 462.758 171.758C470.57 178.008 474.477 186.113 474.477 196.074H450.746C450.746 191.517 449.053 187.741 445.668 184.746C442.283 181.686 437.79 180.156 432.191 180.156C426.983 180.156 422.719 181.361 419.398 183.77C416.143 186.178 414.516 189.401 414.516 193.438C414.516 197.083 416.046 199.915 419.105 201.934C422.165 203.952 428.35 206.003 437.66 208.086C446.97 210.104 454.262 212.546 459.535 215.41C464.874 218.21 468.812 221.595 471.352 225.566C473.956 229.538 475.258 234.355 475.258 240.02C475.258 249.525 471.319 257.24 463.441 263.164C455.564 269.023 445.245 271.953 432.484 271.953C423.826 271.953 416.111 270.391 409.34 267.266C402.569 264.141 397.296 259.844 393.52 254.375C389.743 248.906 387.855 243.014 387.855 236.699H410.902C411.228 242.298 413.344 246.628 417.25 249.688C421.156 252.682 426.332 254.18 432.777 254.18C439.027 254.18 443.78 253.008 447.035 250.664C450.29 248.255 451.918 245.13 451.918 241.289ZM491.566 216.191C491.566 205.84 493.617 196.53 497.719 188.262C501.82 179.928 507.582 173.548 515.004 169.121C522.426 164.629 530.954 162.383 540.59 162.383C554.848 162.383 566.404 166.973 575.258 176.152C584.177 185.332 588.995 197.507 589.711 212.676L589.809 218.242C589.809 228.659 587.79 237.969 583.754 246.172C579.783 254.375 574.053 260.723 566.566 265.215C559.145 269.707 550.551 271.953 540.785 271.953C525.876 271.953 513.93 267.005 504.945 257.109C496.026 247.148 491.566 233.9 491.566 217.363V216.191ZM515.297 218.242C515.297 229.115 517.543 237.643 522.035 243.828C526.527 249.948 532.777 253.008 540.785 253.008C548.793 253.008 555.01 249.883 559.438 243.633C563.93 237.383 566.176 228.236 566.176 216.191C566.176 205.514 563.865 197.051 559.242 190.801C554.685 184.551 548.467 181.426 540.59 181.426C532.842 181.426 526.69 184.518 522.133 190.703C517.576 196.823 515.297 206.003 515.297 218.242ZM632.191 164.336L632.875 175.371C640.297 166.712 650.453 162.383 663.344 162.383C677.471 162.383 687.139 167.786 692.348 178.594C700.03 167.786 710.837 162.383 724.77 162.383C736.423 162.383 745.082 165.605 750.746 172.051C756.475 178.496 759.405 188.001 759.535 200.566V270H735.805V201.25C735.805 194.544 734.34 189.629 731.41 186.504C728.48 183.379 723.63 181.816 716.859 181.816C711.456 181.816 707.029 183.281 703.578 186.211C700.193 189.076 697.816 192.852 696.449 197.539L696.547 270H672.816V200.469C672.491 188.034 666.143 181.816 653.773 181.816C644.268 181.816 637.53 185.69 633.559 193.438V270H609.828V164.336H632.191ZM830.434 271.953C815.395 271.953 803.188 267.233 793.812 257.793C784.503 248.288 779.848 235.658 779.848 219.902V216.973C779.848 206.426 781.866 197.018 785.902 188.75C790.004 180.417 795.733 173.939 803.09 169.316C810.447 164.694 818.65 162.383 827.699 162.383C842.087 162.383 853.188 166.973 861 176.152C868.878 185.332 872.816 198.32 872.816 215.117V224.688H803.773C804.49 233.411 807.387 240.312 812.465 245.391C817.608 250.469 824.053 253.008 831.801 253.008C842.673 253.008 851.527 248.613 858.363 239.824L871.156 252.031C866.924 258.346 861.26 263.262 854.164 266.777C847.133 270.228 839.223 271.953 830.434 271.953ZM827.602 181.426C821.091 181.426 815.818 183.704 811.781 188.262C807.81 192.819 805.271 199.167 804.164 207.305H849.379V205.547C848.858 197.604 846.742 191.615 843.031 187.578C839.32 183.477 834.177 181.426 827.602 181.426ZM906.117 245C910.544 245 913.962 246.27 916.371 248.809C918.78 251.283 919.984 254.408 919.984 258.184C919.984 261.895 918.78 264.987 916.371 267.461C913.962 269.87 910.544 271.074 906.117 271.074C901.885 271.074 898.533 269.87 896.059 267.461C893.585 265.052 892.348 261.96 892.348 258.184C892.348 254.408 893.552 251.283 895.961 248.809C898.37 246.27 901.755 245 906.117 245Z" fill="white"/>
<defs>
<filter id="filter0_d" x="861" y="0" width="167.999" height="282" filterUnits="userSpaceOnUse" color-interpolation-filters="sRGB">
<feFlood flood-opacity="0" result="BackgroundImageFix"/>
<feColorMatrix in="SourceAlpha" type="matrix" values="0 0 0 0 0 0 0 0 0 0 0 0 0 0 0 0 0 0 127 0"/>
<feOffset dy="4"/>
<feGaussianBlur stdDeviation="2"/>
<feColorMatrix type="matrix" values="0 0 0 0 0 0 0 0 0 0 0 0 0 0 0 0 0 0 0.25 0"/>
<feBlend mode="normal" in2="BackgroundImageFix" result="effect1_dropShadow"/>
<feBlend mode="normal" in="SourceGraphic" in2="effect1_dropShadow" result="shape"/>
</filter>
<filter id="filter1_d" x="771" y="35" width="181.999" height="241" filterUnits="userSpaceOnUse" color-interpolation-filters="sRGB">
<feFlood flood-opacity="0" result="BackgroundImageFix"/>
<feColorMatrix in="SourceAlpha" type="matrix" values="0 0 0 0 0 0 0 0 0 0 0 0 0 0 0 0 0 0 127 0"/>
<feOffset dy="4"/>
<feGaussianBlur stdDeviation="2"/>
<feColorMatrix type="matrix" values="0 0 0 0 0 0 0 0 0 0 0 0 0 0 0 0 0 0 0.25 0"/>
<feBlend mode="normal" in2="BackgroundImageFix" result="effect1_dropShadow"/>
<feBlend mode="normal" in="SourceGraphic" in2="effect1_dropShadow" result="shape"/>
</filter>
<filter id="filter2_d" x="938.001" y="33" width="181.999" height="243" filterUnits="userSpaceOnUse" color-interpolation-filters="sRGB">
<feFlood flood-opacity="0" result="BackgroundImageFix"/>
<feColorMatrix in="SourceAlpha" type="matrix" values="0 0 0 0 0 0 0 0 0 0 0 0 0 0 0 0 0 0 127 0"/>
<feOffset dy="4"/>
<feGaussianBlur stdDeviation="2"/>
<feColorMatrix type="matrix" values="0 0 0 0 0 0 0 0 0 0 0 0 0 0 0 0 0 0 0.25 0"/>
<feBlend mode="normal" in2="BackgroundImageFix" result="effect1_dropShadow"/>
<feBlend mode="normal" in="SourceGraphic" in2="effect1_dropShadow" result="shape"/>
</filter>
<linearGradient id="paint0_linear" x1="945" y1="4" x2="945" y2="270" gradientUnits="userSpaceOnUse">
<stop stop-color="white"/>
<stop offset="0.567708" stop-color="#FFFEFD"/>
<stop offset="1" stop-color="#FFCA68"/>
</linearGradient>
<linearGradient id="paint1_linear" x1="862" y1="39" x2="862" y2="264" gradientUnits="userSpaceOnUse">
<stop stop-color="white"/>
<stop offset="0.567708" stop-color="#FFFEFD"/>
<stop offset="1" stop-color="#FFCA68"/>
</linearGradient>
<linearGradient id="paint2_linear" x1="1029" y1="37" x2="1029" y2="264" gradientUnits="userSpaceOnUse">
<stop stop-color="white"/>
<stop offset="0.567708" stop-color="#FFFEFD"/>
<stop offset="1" stop-color="#FFCA68"/>
</linearGradient>
</defs>
</svg>
